HIERARCHY
ROOT Hips
{
	OFFSET 0.00000 0.00000 0.00000
	CHANNELS 6 Xposition Yposition Zposition Zrotation Yrotation Xrotation 
	JOINT LHipJoint
	{
		OFFSET 0 0 0
		CHANNELS 3 Zrotation Yrotation Xrotation
		JOINT LeftUpLeg
		{
			OFFSET 1.30186 -1.90722 0.65024
			CHANNELS 3 Zrotation Yrotation Xrotation
			JOINT LeftLeg
			{
				OFFSET 2.56413 -7.04489 0.00000
				CHANNELS 3 Zrotation Yrotation Xrotation
				JOINT LeftFoot
				{
					OFFSET 2.79321 -7.67428 0.00000
					CHANNELS 3 Zrotation Yrotation Xrotation
					JOINT LeftToeBase
					{
						OFFSET 0.15723 -0.43198 2.08537
						CHANNELS 3 Zrotation Yrotation Xrotation
						End Site
						{
							OFFSET 0.00000 -0.00000 1.07411
						}
					}
				}
			}
		}
	}
	JOINT RHipJoint
	{
		OFFSET 0 0 0
		CHANNELS 3 Zrotation Yrotation Xrotation
		JOINT RightUpLeg
		{
			OFFSET -1.28627 -1.90723 0.65024
			CHANNELS 3 Zrotation Yrotation Xrotation
			JOINT RightLeg
			{
				OFFSET -2.56567 -7.04913 0.00000
				CHANNELS 3 Zrotation Yrotation Xrotation
				JOINT RightFoot
				{
					OFFSET -2.75597 -7.57198 0.00000
					CHANNELS 3 Zrotation Yrotation Xrotation
					JOINT RightToeBase
					{
						OFFSET -0.17500 -0.48081 2.22901
						CHANNELS 3 Zrotation Yrotation Xrotation
						End Site
						{
							OFFSET -0.00000 -0.00000 1.14762
						}
					}
				}
			}
		}
	}
	JOINT LowerBack
	{
		OFFSET 0 0 0
		CHANNELS 3 Zrotation Yrotation Xrotation
		JOINT Spine
		{
			OFFSET -0.04522 2.07467 -0.16566
			CHANNELS 3 Zrotation Yrotation Xrotation
			JOINT Spine1
			{
				OFFSET -0.01178 2.08825 -0.05393
				CHANNELS 3 Zrotation Yrotation Xrotation
				JOINT Neck
				{
					OFFSET 0 0 0
					CHANNELS 3 Zrotation Yrotation Xrotation
					JOINT Neck1
					{
						OFFSET -0.05182 1.80489 0.16014
						CHANNELS 3 Zrotation Yrotation Xrotation
						JOINT Head
						{
							OFFSET 0.14739 1.78840 -0.33342
							CHANNELS 3 Zrotation Yrotation Xrotation
							End Site
							{
								OFFSET 0.04364 1.83899 -0.13460
							}
						}
					}
				}
				JOINT LeftShoulder
				{
					OFFSET 0 0 0
					CHANNELS 3 Zrotation Yrotation Xrotation
					JOINT LeftArm
					{
						OFFSET 3.01264 1.29090 -0.06579
						CHANNELS 3 Zrotation Yrotation Xrotation
						JOINT LeftForeArm
						{
							OFFSET 5.55680 -0.00000 0.00000
							CHANNELS 3 Zrotation Yrotation Xrotation
							JOINT LeftHand
							{
								OFFSET 3.63979 -0.00000 -0.00000
								CHANNELS 3 Zrotation Yrotation Xrotation
								JOINT LeftFingerBase
								{
									OFFSET 0 0 0
									CHANNELS 3 Zrotation Yrotation Xrotation
									JOINT LeftHandIndex1
									{
										OFFSET 0.56942 -0.00000 -0.00000
										CHANNELS 3 Zrotation Yrotation Xrotation
										End Site
										{
											OFFSET 0.45908 -0.00000 -0.00000
										}
									}
								}
								JOINT LThumb
								{
									OFFSET 0 0 0
									CHANNELS 3 Zrotation Yrotation Xrotation
									End Site
									{
										OFFSET 0.46609 -0.00000 0.46609
									}
								}
							}
						}
					}
				}
				JOINT RightShoulder
				{
					OFFSET 0 0 0
					CHANNELS 3 Zrotation Yrotation Xrotation
					JOINT RightArm
					{
						OFFSET -3.15796 1.37283 -0.36748
						CHANNELS 3 Zrotation Yrotation Xrotation
						JOINT RightForeArm
						{
							OFFSET -5.34339 -0.00000 0.00000
							CHANNELS 3 Zrotation Yrotation Xrotation
							JOINT RightHand
							{
								OFFSET -3.65101 -0.00000 -0.00000
								CHANNELS 3 Zrotation Yrotation Xrotation
								JOINT RightFingerBase
								{
									OFFSET 0 0 0
									CHANNELS 3 Zrotation Yrotation Xrotation
									JOINT RightHandIndex1
									{
										OFFSET -0.69425 -0.00000 -0.00000
										CHANNELS 3 Zrotation Yrotation Xrotation
										End Site
										{
											OFFSET -0.55972 -0.00000 -0.00000
										}
									}
								}
								JOINT RThumb
								{
									OFFSET 0 0 0
									CHANNELS 3 Zrotation Yrotation Xrotation
									End Site
									{
										OFFSET -0.56827 -0.00000 0.56827
									}
								}
							}
						}
					}
				}
			}
		}
	}
}
MOTION
Frames: 6
Frame Time: .0083333
18.4934 18.4605 2.2111 140.5400 -83.1087 -133.8620 0.0000 0.0000 0.0000 -24.4279 5.7740 -16.6670 2.1455 9.1628 26.3059 2.2071 -0.7299 -27.9223 0.0042 0.4182 1.1491 0.0000 0.0000 0.0000 10.8900 11.4687 -12.4758 -2.6672 -10.1357 29.4174 -0.6383 -7.7440 -19.8485 -0.0072 -0.5467 1.5023 -6.0116 -2.1058 2.8714 0.3099 -2.9729 1.5953 3.7526 -1.5437 0.3583 -8.2016 -8.5140 -6.0224 5.9770 -11.4041 10.4170 2.3997 -5.6207 4.9260 0.0000 0.0000 0.0000 -83.6949 25.3959 -15.9159 25.4135 -36.6237 -8.5354 -0.0000 0.0000 -27.5591 11.0768 26.8987 5.0615 -7.1250 0.0000 -0.0000 -20.6028 56.1036 -5.7850 0.0000 0.0000 0.0000 81.0649 -21.5543 -26.1458 -59.2222 56.0991 -33.6947 0.0000 -0.0000 -49.2236 7.1730 23.6925 2.8950 7.1250 -0.0000 -0.0000 22.1135 -7.4490 20.7095
18.5080 18.4431 2.2109 143.7000 -82.3699 -137.0880 0.0000 0.0000 0.0000 -24.6227 6.4476 -17.3736 2.2924 9.4502 27.2140 2.1757 -0.4190 -27.8124 0.0016 -0.2567 -0.7052 0.0000 0.0000 0.0000 10.7167 12.4577 -12.0455 -2.6061 -10.0284 29.0687 -0.5595 -8.3859 -19.5939 -0.0008 0.1864 -0.5121 -6.3566 -2.1625 2.9242 0.2663 -3.0613 1.6348 3.9028 -1.5933 0.3960 -8.0495 -8.3741 -6.1280 5.9365 -11.2224 10.4895 2.3739 -5.5266 4.9418 -0.0000 0.0000 0.0000 -84.0737 25.2549 -15.2847 25.1915 -36.3991 -8.4033 -0.0000 0.0000 -27.4372 11.0262 26.6920 5.0022 -7.1250 0.0000 -0.0000 -20.5234 55.9003 -5.6586 -0.0000 0.0000 0.0000 81.0736 -21.1091 -25.2316 -58.6826 55.9486 -33.2473 0.0000 -0.0000 -48.9798 7.2957 23.0451 2.8691 7.1250 -0.0000 -0.0000 22.2375 -8.0554 20.5594
18.5287 18.4246 2.2159 148.0100 -81.7732 -141.4170 0.0000 0.0000 0.0000 -24.4879 6.9978 -18.1337 2.4603 9.7654 28.2202 2.2187 -0.5693 -28.0446 0.0009 -0.1934 -0.5313 0.0000 0.0000 0.0000 10.7852 13.2976 -11.7698 -2.5572 -9.9412 28.7866 -0.5392 -8.5431 -19.5241 -0.0073 0.5508 -1.5135 -6.3426 -2.1584 3.0745 0.3532 -3.0659 1.6608 3.9911 -1.5952 0.3434 -8.1612 -8.2811 -6.4305 5.9358 -11.0693 10.6521 2.3878 -5.4491 5.0379 -0.0000 -0.0000 0.0000 -84.7046 25.0026 -14.6173 25.1514 -36.3583 -8.3795 -0.0000 0.0000 -27.2510 11.7057 26.6973 5.3182 -7.1250 0.0000 -0.0000 -19.8463 56.0408 -5.5296 -0.0000 -0.0000 0.0000 81.0765 -20.8007 -24.4100 -58.5514 55.9114 -33.1385 0.0000 -0.0000 -48.8770 6.8528 22.1610 2.5956 7.1250 -0.0000 -0.0000 22.0584 -8.8756 19.9744
18.5508 18.4083 2.2247 152.9260 -81.4479 -146.3200 0.0000 0.0000 0.0000 -23.9507 7.4161 -18.9204 2.6482 10.1026 29.3096 2.2474 -0.8621 -28.1414 0.0004 -0.1266 -0.3479 0.0000 0.0000 0.0000 11.1017 13.3950 -11.8100 -2.5207 -9.8755 28.5746 -0.6288 -7.5157 -19.5599 -0.0000 -0.0115 0.0316 -5.8157 -2.1430 3.1810 0.3902 -3.0366 1.7703 3.7361 -1.5805 0.3663 -8.1213 -8.2353 -6.9856 5.9574 -10.9848 10.9280 2.3675 -5.3922 5.2092 -0.0000 -0.0000 0.0000 -84.9526 24.5525 -13.8167 25.0802 -36.2858 -8.3373 -0.0000 0.0000 -26.4683 12.0800 26.5906 5.4720 -7.1250 0.0000 -0.0000 -19.4049 56.0153 -5.3877 -0.0000 -0.0000 0.0000 81.3708 -20.3466 -23.8118 -58.3686 55.8593 -32.9872 0.0000 -0.0000 -48.6015 6.3758 22.8046 2.4799 7.1250 -0.0000 -0.0000 21.7278 -8.2668 19.9070
18.5687 18.3967 2.2336 155.3360 -80.9096 -148.7170 0.0000 0.0000 0.0000 -23.7925 7.9448 -19.7673 2.8498 10.4479 30.4398 2.1990 -1.4469 -27.6679 0.0046 0.4373 1.2017 0.0000 0.0000 0.0000 10.9673 12.9132 -12.1448 -2.4975 -9.8334 28.4389 -0.7303 -5.8557 -19.3152 -0.0124 -0.7187 1.9752 -5.6806 -2.0857 3.2291 0.2809 -2.9601 1.8279 3.5471 -1.5428 0.3772 -7.8845 -8.2009 -7.1765 6.0042 -10.9600 10.9785 2.3393 -5.3640 5.2444 -0.0000 0.0000 0.0000 -85.0238 24.1619 -13.0554 25.0372 -36.2420 -8.3119 -0.0000 0.0000 -25.0507 11.9668 26.1726 5.3409 -7.1250 0.0000 -0.0000 -19.2659 55.5984 -5.1492 -0.0000 0.0000 0.0000 81.7697 -19.9320 -23.2798 -58.0787 55.7758 -32.7474 0.0000 -0.0000 -48.1261 6.3898 23.9046 2.5983 7.1250 -0.0000 -0.0000 21.6496 -7.2376 20.2957
18.5843 18.3911 2.2477 157.2360 -80.1346 -150.7740 0.0000 0.0000 0.0000 -23.7606 8.3023 -20.3102 3.0606 10.7926 31.5835 2.1798 -2.3131 -27.3245 0.1068 2.1070 5.8015 0.0000 0.0000 0.0000 10.7252 12.7656 -12.2600 -2.4910 -9.8216 28.4009 -0.7832 -4.5514 -18.9751 -0.0188 -0.8849 2.4321 -5.7718 -1.9430 3.5444 0.2866 -2.7946 1.8131 3.6149 -1.4552 0.1735 -7.9991 -8.1967 -7.0380 6.0825 -10.9496 10.7908 2.3905 -5.3620 5.1731 0.0000 -0.0000 0.0000 -85.4632 23.8476 -12.5339 25.1219 -36.3283 -8.3620 -0.0000 0.0000 -23.3154 12.7345 26.2130 5.7006 -7.1250 0.0000 -0.0000 -18.5198 55.7885 -5.0261 0.0000 -0.0000 0.0000 81.7894 -19.7302 -22.5984 -57.8764 55.7170 -32.5802 0.0000 -0.0000 -47.8574 5.4461 24.4188 2.2571 7.1250 -0.0000 -0.0000 21.0726 -6.7342 19.8873
